<svg xmlns="http://www.w3.org/2000/svg" style="display:block" viewBox="0 0 2048 2048" width="1024" height="1024" preserveAspectRatio="none"><path fill="#111827" d="M1245.26 920.307c8.01-8.414 26.82-34.072 35.05-44.551l102.9-133.088c11.06-14.262 33.65-45.517 44.44-57.002 1.16 46.768-.46 96.087-.49 143.049l.67 400.275c-32.79.16-66.85.55-99.62.13l-.29-250.032c-26.18 34.342-60.31 77.522-83.81 112.892-11.59.2-28.96 1.24-39.87.87-8.27-8.71-14.16-17.78-21.54-26.81-20.99-25.64-43.12-60.71-65.5-84.621-15.17-23.265-44.62-53.183-59.62-76.46 13.87-14.357 33.57-33.551 46.15-48.125 26.58 22.606 52.84 50.504 78.58 74.518 10.25 9.566 20.9 21.14 31.55 29.911a1147 1147 0 0 1 31.4-40.956"/><path fill="#0372ae" d="M1245.26 920.307c8.01-8.414 26.82-34.072 35.05-44.551l102.9-133.088c11.06-14.262 33.65-45.517 44.44-57.002 1.16 46.768-.46 96.087-.49 143.049l-1.07.985c-7.79 7.235-16.55 17.876-23.81 25.991a4952 4952 0 0 1-37.71 41.542c-20.05 21.824-41.46 44.587-73.92 43.788-19.07-.47-31.56-8.304-45.39-20.714"/><path fill="#111827" d="M929.073 1020.54c-9.498-1.38-34.661-.79-44.997-.76l-75.482.2c-57.512.09-104.008.22-148.763-44.521a152.54 152.54 0 0 1-43.779-107.509 156.72 156.72 0 0 1 45.873-110.874c21.331-21.001 45.737-33.33 75-39.431 18.424-3.842 36.307-2.79 55.114-2.777l63.834.074q123.606-.624 247.207.104c-.77 5.372-81.2 84.553-92.24 97.893l-.77.233-173.62-.188-45.296-.172c-10.155-.09-21.106-.858-31.122.69-59.657 9.216-62.547 94.678-3.015 107.61 12.421 2.698 31.208 1.037 44.327.967l84.68-.269c41.044-.142 74.376-2.672 110.682 21.145-17.565 20.734-48.901 59.305-67.633 77.585"/><path fill="#0372ae" d="M996.706 942.955c28.884 14.732 53.814 49.181 63.794 79.685a162.32 162.32 0 0 1-9.85 124.99c-17.86 34.83-49.45 62.74-86.852 74.69-28.413 9.08-50.357 6.17-79.355 6.08l-64.717.13-228.543.51c19.193-28.57 53.014-69.23 75.099-97.23l176.626-.06c17.025.01 34.07.03 51.093 0 23.33-.04 46.264 1.5 63.923-16.77a58.54 58.54 0 0 0 16.254-42.95 55.37 55.37 0 0 0-18.787-38.84c-7.992-6.9-16.087-10.35-26.318-12.65 18.732-18.28 50.068-56.851 67.633-77.585"/><path fill="#111827" d="M1320.37 570.642a6262 6262 0 0 0 146.72-60.197c-.63 52.147-4.28 107.405-3.04 159.356-12.64-9.386-30.1-20.794-41.44-30.344-36.18 48.465-73.38 95.346-110.18 143.28l-42.05 54.672c-5.82 7.535-15.94 21.328-21.87 27.833-9.25-11.478-40.74-45.253-46.39-54.495 45.25-61.824 93.91-122.351 139.92-183.692 6.68-8.905 14.51-19.302 21.7-27.666a3120 3120 0 0 0-43.37-28.747"/><path fill="#0372ae" d="m1103.08 715.046 13.73.012c8.28 7.329 25.86 28.462 33.82 37.563l51.49 58.126c5.65 9.242 37.14 43.017 46.39 54.495-11.64 15.945-26.32 31.987-37.23 48.315-14.24-11.97-101.9-97.871-108.32-100.034-9.66 8.073-21.39 20.949-30.76 30.254a8121 8121 0 0 0-61.59 61.533c-.7-30.555.46-61.733-.54-92.138l.77-.233c11.04-13.34 91.47-92.521 92.24-97.893"/><path fill="#111827)" d="M1098.04 1057.99c4.92 5.79 14.36 18.45 19.81 22.07.57 49.69-.56 99.63.31 149.32-29.59.69-75.13-1.19-103.04 1.39 62.51-50.02 83.49-92.76 82.92-172.78"/><path fill="#0372ae" d="M1057.58 904.959c15 23.277 44.45 53.195 59.62 76.46.62 32.881.84 65.761.65 98.641-5.45-3.62-14.89-16.28-19.81-22.07-.86-7.43-1.98-14.92-2.99-22.28-4.69-34.1-33.57-85.139-61.91-104.826 8.09-8.693 16.24-17.335 24.44-25.925m320.93 449.541c5.9.17 10.67.18 16.57-.02"/></svg>