<svg xmlns="http://www.w3.org/2000/svg" style="display:block" viewBox="0 0 2048 2048" width="1024" height="1024" preserveAspectRatio="none"><path fill="#111827" d="M1245.26 920.307c8.01-8.414 26.82-34.072 35.05-44.551l102.9-133.088c11.06-14.262 33.65-45.517 44.44-57.002 1.16 46.768-.46 96.087-.49 143.049l.67 400.275c-32.79.16-66.85.55-99.62.13l-.29-250.032c-26.18 34.342-60.31 77.522-83.81 112.892-11.59.2-28.96 1.24-39.87.87-8.27-8.71-14.16-17.78-21.54-26.81-20.99-25.64-43.12-60.71-65.5-84.621-15.17-23.265-44.62-53.183-59.62-76.46 13.87-14.357 33.57-33.551 46.15-48.125 26.58 22.606 52.84 50.504 78.58 74.518 10.25 9.566 20.9 21.14 31.55 29.911a1147 1147 0 0 1 31.4-40.956"/><path fill="#0372ae" d="M1245.26 920.307c8.01-8.414 26.82-34.072 35.05-44.551l102.9-133.088c11.06-14.262 33.65-45.517 44.44-57.002 1.16 46.768-.46 96.087-.49 143.049l-1.07.985c-7.79 7.235-16.55 17.876-23.81 25.991a4952 4952 0 0 1-37.71 41.542c-20.05 21.824-41.46 44.587-73.92 43.788-19.07-.47-31.56-8.304-45.39-20.714"/><path fill="#111827" d="M929.073 1020.54c-9.498-1.38-34.661-.79-44.997-.76l-75.482.2c-57.512.09-104.008.22-148.763-44.521a152.54 152.54 0 0 1-43.779-107.509 156.72 156.72 0 0 1 45.873-110.874c21.331-21.001 45.737-33.33 75-39.431 18.424-3.842 36.307-2.79 55.114-2.777l63.834.074q123.606-.624 247.207.104c-.77 5.372-81.2 84.553-92.24 97.893l-.77.233-173.62-.188-45.296-.172c-10.155-.09-21.106-.858-31.122.69-59.657 9.216-62.547 94.678-3.015 107.61 12.421 2.698 31.208 1.037 44.327.967l84.68-.269c41.044-.142 74.376-2.672 110.682 21.145-17.565 20.734-48.901 59.305-67.633 77.585"/><path fill="#0372ae" d="M996.706 942.955c28.884 14.732 53.814 49.181 63.794 79.685a162.32 162.32 0 0 1-9.85 124.99c-17.86 34.83-49.45 62.74-86.852 74.69-28.413 9.08-50.357 6.17-79.355 6.08l-64.717.13-228.543.51c19.193-28.57 53.014-69.23 75.099-97.23l176.626-.06c17.025.01 34.07.03 51.093 0 23.33-.04 46.264 1.5 63.923-16.77a58.54 58.54 0 0 0 16.254-42.95 55.37 55.37 0 0 0-18.787-38.84c-7.992-6.9-16.087-10.35-26.318-12.65 18.732-18.28 50.068-56.851 67.633-77.585"/><path fill="#111827" d="M1320.37 570.642a6262 6262 0 0 0 146.72-60.197c-.63 52.147-4.28 107.405-3.04 159.356-12.64-9.386-30.1-20.794-41.44-30.344-36.18 48.465-73.38 95.346-110.18 143.28l-42.05 54.672c-5.82 7.535-15.94 21.328-21.87 27.833-9.25-11.478-40.74-45.253-46.39-54.495 45.25-61.824 93.91-122.351 139.92-183.692 6.68-8.905 14.51-19.302 21.7-27.666a3120 3120 0 0 0-43.37-28.747"/><path fill="#0372ae" d="m1103.08 715.046 13.73.012c8.28 7.329 25.86 28.462 33.82 37.563l51.49 58.126c5.65 9.242 37.14 43.017 46.39 54.495-11.64 15.945-26.32 31.987-37.23 48.315-14.24-11.97-101.9-97.871-108.32-100.034-9.66 8.073-21.39 20.949-30.76 30.254a8121 8121 0 0 0-61.59 61.533c-.7-30.555.46-61.733-.54-92.138l.77-.233c11.04-13.34 91.47-92.521 92.24-97.893"/><path fill="#111827" d="m1010.84 812.939 60.98.251c8.4.044 23.47-.345 31.14.333-9.66 8.073-21.39 20.949-30.76 30.254a8121 8121 0 0 0-61.59 61.533c-.7-30.555.46-61.733-.54-92.138zm-3.64 527.241c8.78.34 18.94.13 27.82.15-.58 51.08-.61 102.17-.07 153.25-8.37-.25-17.28-.19-25.7-.28l-.2-13.23c-15.587 17.22-28.786 18.66-50.109 13.22-36.11-15.78-40.183-67.93-16.569-96.17 16.607-19.86 46.159-19.14 64.878-1.42-.94-13.12-.57-42.36-.05-55.52m-18.892 131.89c9.995-3.24 11.369-3.71 18.542-11.36.01-14.7.16-29.52-.49-44.19-9.444-9.12-15.88-10.74-29.034-9.48-7.796 2.74-14.036 6.68-17.023 14.67-8.988 24.04-1.586 52.3 28.005 50.36m-378.253-88.88c39.905-3.13 52.51 23 54.659 58.08 2.726 44.5-46.911 74.55-78.636 41.26l-.156 28.72c-.111 7.64.074 15.66.128 23.33-9.108-.23-18.74-.09-27.894-.1.558-15.01-.079-33.91-.081-49.35l-.024-100.06c9.77.49 17.052.42 26.848.07-.021 3.96-.087 5.78.528 9.65 2.621 1.35 9.689-6.72 13.298-8.19 3.819-1.56 5.901-2.25 9.979-3.13zm-23.766 78.79c6.932 6.66 13.037 10.49 23.164 10.13 3.301-.14 6.572-.68 9.743-1.61 17.805-9.1 21.045-33.87 12.595-50.08a25.08 25.08 0 0 0-15.661-12.73c-4.242-1.15-8.859-.8-13.22-.59-21.321 8.75-17.034 16.11-16.969 37.48.017 5.74.176 11.65.348 17.4"/><path fill="#0372ae" d="M1190.41 1345.61c7.65.26 16.72-.31 24.48-.61l-.12 97.91c.01 13 .8 37.7-.3 49.95-5.82-.13-11.74.03-17.58.12a4055 4055 0 0 1-.53-94.23c-.01-8.71.02-16.12.64-24.78-14.5 35.46-32.4 74.51-47.84 110.05l-15.13-.05c-17.95-36.7-31.57-74.09-48.67-110.87.98 40.31.18 80.48 1.24 120.77l-18.56-.37-.13-98.17c-.03-12.07-.79-38.98.32-50 7.74-.12 15.48-.02 23.21.28 5.86 9.49 11.36 25.58 16 36.05 11.89 26.82 22.25 55.88 34.31 82.45 2.19-4.92 3.99-9.99 5.83-15.06 12.71-35.13 28.8-68.84 42.83-103.44"/><path fill="#111827" d="M473.795 1344.38c21.907-1.82 40.496 6.24 58.482 17.44-4.284 6.53-9.069 15.74-12.948 22.72-15.101-9.21-48.565-22.7-63.521-7.88a14.02 14.02 0 0 0-4.188 10.06c-.06 23.17 57.137 16.94 73.654 35.84 23.337 26.72 9.635 61.09-23.165 70.5-9.419 2.71-19.584 2.75-29.641 2.8-23.754-1.84-37.354-6.14-56.21-20.77a655 655 0 0 0 15.053-21.94c16.651 12.66 30.943 19.08 52.407 17.67 8.159.66 26.28-5.97 23.435-17.75-6.045-25.01-53.838-16.48-71.792-33.5-17.5-16.58-17.434-40.33-3.434-57.63 10.414-12.88 26.777-16.03 41.868-17.56m252.411 38.88c2.681-.18 5.365-.3 8.051-.38 32.134-.8 51.027 22.77 51.874 53.2.126 4.54.142 9.09.156 13.63-25.329-.56-53.171.13-78.693.24 7.084 20.72 21.118 27.45 42.498 20.71 5.885-1.86 9.318-5.04 14.491-7.92l1.981 1.34c5.36 4.16 13.631 6.59 12.995 13.74-2.762 4.53-6.071 6.15-10.441 8.97-19.106 12.35-45.915 12.65-65.28.29a50.72 50.72 0 0 1-22.648-32.21c-7.756-34.31 9.232-64.31 45.016-71.61m-19.22 47.35 32.264.13 21.093-.23c-3.738-17.71-9.249-25.18-28.533-25.25-16.799 3.75-19.292 9.64-24.824 25.35"/><path fill="#0372ae" d="M1569.62 1384.35c1.92-.2 3.85-.36 5.77-.45 34-1.64 50.11 15.1 50.08 48.81-.02 19.96.08 40.32.07 60.31-5.21-.14-11.05 0-16.3.01-.27-4.33-.19-9.03-.2-13.41-.68.69-1.37 1.36-2.07 2.03-20.09 19.05-53.38 20.81-72.91-.23-3.71-5.92-5.23-10.6-5.56-17.72a30.13 30.13 0 0 1 8.81-22.59c15.75-15.72 48.89-12.27 69.75-11.96-.64-5.09-1.01-12.26-3.55-16.61-13.15-22.44-43.05-10.21-59.63-.76a509 509 0 0 1-8.18-12.89c9.78-9.06 21.08-12.64 33.92-14.54m12.03 96.13c11.6-3.45 16.64-6.18 24.54-15.89.54-7.47.67-14 .75-21.5-8.35-.21-27.27-.89-35.05.22-8.05.83-16.22 1.96-21.77 8.66a15.22 15.22 0 0 0-3.43 11.3c1.61 17.19 21.34 19.59 34.96 17.21m-291.95-97.12c24.91-2.16 44.28 9.18 52.89 33.23 3.97 11.07 3.48 19.87 3.38 31.35-25.85-1.18-58.81-.07-85.18.11 8.72 31.83 32.49 40.69 61.18 24.93l6.8-5.94 11.82 8.66c-13.62 15.9-23.49 20.19-44.23 20.76-25.79.95-49.11-17.5-53.05-43.38-5.29-34.74 9.12-64.31 46.39-69.72m-29.45 49.64 41.5-.12 27.76-.05c-7.67-24.63-14.11-34.14-41.75-32.68-18.93 5.96-22.4 14.74-27.51 32.85"/><path fill="#111827)" d="M1098.04 1057.99c4.92 5.79 14.36 18.45 19.81 22.07.57 49.69-.56 99.63.31 149.32-29.59.69-75.13-1.19-103.04 1.39 62.51-50.02 83.49-92.76 82.92-172.78"/><path fill="#111827" d="M863.619 1383.24c11.427-1.22 22.89-.54 31.966 7.28 12.729 10.96 12.568 28.52 12.454 43.85-.146 19.78-.103 39.52-.031 59.27l-28.016-.22c.158-15.28 3.065-65.54-2.322-76.66-2.037-4.21-5.321-7.38-9.818-8.81-8.685-2.77-17.758 1.42-25.39 5.31-1.229 1.09-1.674 1.44-2.812 2.63-6.713 7.05-3.598 65.35-3.553 77.43l-27.536-.03c-.513-36.06-.592-72.12-.238-108.19 8.542.41 17.608.34 26.199.42.144 4.73-.145 9.72-.317 14.47 11.047-11.27 13.895-13.44 29.414-16.75"/><path fill="#0372ae" d="M1057.58 904.959c15 23.277 44.45 53.195 59.62 76.46.62 32.881.84 65.761.65 98.641-5.45-3.62-14.89-16.28-19.81-22.07-.86-7.43-1.98-14.92-2.99-22.28-4.69-34.1-33.57-85.139-61.91-104.826 8.09-8.693 16.24-17.335 24.44-25.925m320.93 449.541c5.9.17 10.67.18 16.57-.02.2 10.29.63 21.4.29 31.62l30.14-.07.15 14.93-30.27-.15c.7 13.41-3.06 67.4 3.88 74.94 6.98 7.6 17.61 1.48 25.84 2.26l1.16 2.26 3.43 11.25c-20.04 7.51-47.33 7.24-50.5-18.11-2.75-21.99-1.17-50.96-1.06-73.28l-18.44-.08-.25-13.92 18.51.06c-.02-7.74-.46-24.58.55-31.69m124 29.73c4.19-.33 10.05-.14 14.38-.13.03 6.48-.34 11.28-.87 17.72-12.49.15-25.17.5-34.93 9.75a31.47 31.47 0 0 0-8.66 14.93c-2.47 9.52-1.42 54.44-1.43 67.19-4.51.04-14.4.66-17.78-.82l-.52-2.62-.51-104.89 18.18.1c-.05 6.25-.05 12.5-.01 18.75 10.89-11.86 16.03-17.15 32.15-19.98"/></svg>